<svg t="1746945086257" class="icon" viewBox="0 0 1024 1024" version="1.1" xmlns="http://www.w3.org/2000/svg" p-id="4694"
    width="200" height="200">
    <path
        d="M876.88894187 362.30785921v463.42517333c0 23.4826304-19.07152853 42.6838976-42.55415894 42.6838976-23.61236907 0-42.6838976-19.07152853-42.6838976-42.6838976V362.30785921h85.23805654z"
        fill="#CCCBCA" p-id="4695"></path>
    <path
        d="M791.52114667 825.86277121V235.68328748l-103.27167894-103.27167894H146.98132053v693.45116267c0 10.898016 4.1516256 21.79603307 12.45487574 30.0992832 8.30325013 8.30325013 19.3310048 12.45487573 30.0992832 12.45487573H834.20504427c-23.4826304 0.12973867-42.6838976-19.07152853-42.6838976-42.55415893z"
        fill="#FFFFFF" p-id="4696"></path>
    <path
        d="M210.81255893 544.97937174h246.502752v11.4169696h-246.502752zM210.81255893 581.95478508h246.502752v11.28723093h-246.502752zM210.81255893 618.93019734h246.502752v11.4169696h-246.502752zM210.81255893 655.90561068h246.502752v11.4169696h-246.502752zM210.81255893 692.88102294h246.502752v11.4169696h-246.502752zM210.81255893 729.85643628h246.502752v11.4169696h-246.502752zM210.81255893 766.83184854h246.502752v11.4169696h-246.502752z"
        fill="#CCCBCA" p-id="4697"></path>
    <path d="M210.81255893 397.07772054h246.502752V519.42092908h-246.502752z" fill="#516575" p-id="4698"></path>
    <path
        d="M482.8737536 397.07772054h246.63249067v11.4169696H482.8737536zM482.8737536 434.05313388h246.63249067v11.4169696H482.8737536zM482.8737536 471.02854614h246.63249067v11.4169696H482.8737536zM482.8737536 508.00395948h246.63249067v11.4169696H482.8737536zM482.8737536 544.97937174h246.63249067v11.4169696H482.8737536zM482.8737536 581.95478508h246.63249067v11.28723093H482.8737536zM482.8737536 618.93019734h246.63249067v11.4169696H482.8737536zM482.8737536 655.90561068h246.63249067v122.34320746H482.8737536z"
        fill="#CCCBCA" p-id="4699"></path>
    <path
        d="M494.1609856 685.87515521h24.00158293V767.22106348h-24.00158293zM527.50372587 732.84041601H551.3755712V767.22106348h-23.87184533zM560.84646613 695.86500374h24.001584v71.35605974h-24.001584zM594.18920747 709.74700054h24.00158293V767.22106348H594.18920747zM627.53194773 675.10687681h24.001584v92.11418667h-24.001584zM660.874688 751.39299201h23.87184533V767.22106348h-23.87184533zM694.21742933 692.88102294h24.00158294V767.22106348h-24.00158294z"
        fill="#FFFFFF" p-id="4700"></path>
    <path d="M209.1259616 245.54339841h520.250544v76.15637547h-520.250544z" fill="#EC6C3F" p-id="4701"></path>
    <path
        d="M209.1259616 344.27423681h520.250544v7.1356064h-520.250544zM209.1259616 215.96306774h520.250544v7.1356064h-520.250544z"
        fill="#2B4456" p-id="4702"></path>
    <path d="M791.52114667 235.68328748h-103.27167894v-103.27167894z" fill="#CCCBCA" p-id="4703"></path>
</svg>